@startuml "Class Diagram"
class Member <<Entity>>{
    +firstName: String
    +lastName: String
    +email: String
    +phone: Number
    +photo: Photo   
    +creditcard: Number
    +walls:[]
    +orders:[]
    +measurements: []   
    -discount: Number   
    +updateProfile()          
    +findPT(startDate,endDate,location,sports) :[PT]
    +shareOnWall()
    +comment()    //push wall
    +bookPT(pt,price,creditcard,date,location,discount) //push order   
    +setMeasurement()
}

class PT<<Entity>>{
    +firstName: String
    +lastName: String
    +email: String
    +phone: Number
    +photo: Photo   
    +accountNumber: Number
    +sports: Sports
    +certificate : [Documents]
    +usingBrand: String[]
    +sessionPrice: Number
    +location: Location  
    +freeDate: Date  
    -schedule: Calender
    +setDate(freeDate)
    +setPrice(number)
    +setBrand()

}
class Calender<<Entity>>{
    +reservedDate: Date
    +freeDate: Date
}
class Wall<<Entity>>{
    +member: Member
    +location: Location
    +description: String
}
class Order<<Entity>>{
    +member: Member
    +pt:PT
    +price: Number
    +creditcard: member.creditcard
    +date: Date
    +location: Location
}

class BMI <<ValueObject>> {
    +type: String
    +value: Number
    +unit: String
}

class Documents<<Entity>>{
    +type: String
    +date: Date
    +description: String
    +value: Number
    +unit: String
    }

class Measurement <<ValueObject>>{
    +type: String
    +date: Date
    +value: Number
    +unit: String
    +description: String
}
class Brand <<Entity>>{
    +brandName: String
}


interface Certificate <<ValueObject>>{
    +type: String
    +date: Date 
    +description: String 
}

enum Sports{
    CrossFit
    Yoga
    Pilates
    Fitness
}

class Location<<Entity>> {
    +coords: Number[]
    +name: String
}

class Admin {
    +moderateComments()
}

Admin -up-|> Member
BMI --* Measurement
Measurement --* Member
Certificate -up-|> Documents
Documents --*PT

PT o--> Location
Member --> PT
Member *-- Wall
Member *-- Order
PT *-- Order
PT*-- Calender
PT --* Sports


@enduml